<?xml version="1.0" encoding="UTF-8" standalone="no"?>
<!-- Created with Inkscape (http://www.inkscape.org/) -->

<svg
   width="100mm"
   height="100mm"
   viewBox="0 0 100 100"
   version="1.1"
   id="svg1"
   sodipodi:docname="Archtop_SeamProfile.svg"
   inkscape:version="1.4 (e7c3feb100, 2024-10-09)"
   xmlns:inkscape="http://www.inkscape.org/namespaces/inkscape"
   xmlns:sodipodi="http://sodipodi.sourceforge.net/DTD/sodipodi-0.dtd"
   xmlns="http://www.w3.org/2000/svg"
   xmlns:svg="http://www.w3.org/2000/svg">
  <sodipodi:namedview
     id="namedview1"
     pagecolor="#ffffff"
     bordercolor="#666666"
     borderopacity="1.0"
     inkscape:showpageshadow="2"
     inkscape:pageopacity="0.0"
     inkscape:pagecheckerboard="0"
     inkscape:deskcolor="#d1d1d1"
     inkscape:document-units="mm"
     inkscape:zoom="1.3694639"
     inkscape:cx="303.76851"
     inkscape:cy="81.418722"
     inkscape:window-width="2560"
     inkscape:window-height="1368"
     inkscape:window-x="0"
     inkscape:window-y="0"
     inkscape:window-maximized="1"
     inkscape:current-layer="svg1" />
  <defs
     id="defs1" />
  <path
     id="path1"
     style="display:inline;fill:#ffdd55;fill-opacity:1;stroke:none;stroke-width:2.85"
     d="m 86.57268,67.671525 c 0,-17.628533 -14.955348,-25.031437 -14.955348,-32.190086 0,-4.424872 5.527289,-10.348578 5.527862,-17.0166 C 77.146335,6.319706 66.944874,2.5411758 50,2.5000028 33.055125,2.5411378 22.853742,6.319706 22.854804,18.464839 c 5.67e-4,6.668022 5.527864,12.591728 5.527864,17.0166 0,7.158649 -14.955348,14.561553 -14.955348,32.190086 0,21.132855 17.27972,29.828478 36.57268,29.828478 19.292959,0 36.57268,-8.695623 36.57268,-29.828478 z" />
  <path
     style="fill:none;stroke:#ff0000;stroke-width:6;stroke-linecap:butt;stroke-linejoin:miter;stroke-opacity:1"
     d="M 50,2.5000028 V 97.500003"
     id="path2" />
  <path
     id="path3"
     style="display:inline;fill:none;fill-opacity:1;stroke:#000000;stroke-width:3"
     d="m 86.57268,67.671525 c 0,-17.628533 -14.955348,-25.031437 -14.955348,-32.190086 0,-4.424872 5.527289,-10.348578 5.527862,-17.0166 C 77.146335,6.319706 66.944874,2.5411758 50,2.5000028 33.055125,2.5411378 22.853742,6.319706 22.854804,18.464839 c 5.67e-4,6.668022 5.527864,12.591728 5.527864,17.0166 0,7.158649 -14.955348,14.561553 -14.955348,32.190086 0,21.132855 17.27972,29.828478 36.57268,29.828478 19.292959,0 36.57268,-8.695623 36.57268,-29.828478 z" />
</svg>
