<?xml version="1.0" encoding="UTF-8" standalone="no"?>
<!-- Created with Inkscape (http://www.inkscape.org/) -->

<svg
   width="100mm"
   height="100mm"
   viewBox="0 0 100 100"
   version="1.1"
   id="svg1"
   inkscape:version="1.4 (e7c3feb100, 2024-10-09)"
   sodipodi:docname="Archtop_CrossProfile.svg"
   xmlns:inkscape="http://www.inkscape.org/namespaces/inkscape"
   xmlns:sodipodi="http://sodipodi.sourceforge.net/DTD/sodipodi-0.dtd"
   xmlns="http://www.w3.org/2000/svg"
   xmlns:svg="http://www.w3.org/2000/svg">
  <sodipodi:namedview
     id="namedview1"
     pagecolor="#ffffff"
     bordercolor="#666666"
     borderopacity="1.0"
     inkscape:showpageshadow="2"
     inkscape:pageopacity="0.0"
     inkscape:pagecheckerboard="0"
     inkscape:deskcolor="#d1d1d1"
     inkscape:document-units="mm"
     inkscape:zoom="1.3694639"
     inkscape:cx="174.52085"
     inkscape:cy="102.59489"
     inkscape:window-width="2560"
     inkscape:window-height="1368"
     inkscape:window-x="0"
     inkscape:window-y="0"
     inkscape:window-maximized="1"
     inkscape:current-layer="layer1"
     showgrid="false" />
  <defs
     id="defs1" />
  <g
     inkscape:label="Layer 1"
     inkscape:groupmode="layer"
     id="layer1"
     transform="translate(0,-197)">
    <g
       id="g1"
       transform="matrix(0.95,0,0,0.95,13.42732,12.350003)">
      <path
         id="path1"
         style="display:inline;fill:#ffdd55;fill-opacity:1;stroke:none;stroke-width:3"
         d="m 76.995115,265.6016 c 0,-18.55635 -15.742472,-26.34888 -15.742472,-33.8843 0,-4.65776 5.818198,-10.89324 5.818803,-17.91221 C 67.072646,201.02074 56.334267,197.04334 38.497557,197 c -17.83671,0.0433 -28.575006,4.02074 -28.573889,16.80509 5.97e-4,7.01897 5.818803,13.25445 5.818803,17.91221 C 15.742471,239.25272 0,247.04525 0,265.6016 0,287.84671 18.18918,297 38.497557,297 c 20.308377,0 38.497558,-9.15329 38.497558,-31.3984 z"
         sodipodi:nodetypes="sscccsscs" />
      <path
         style="fill:none;stroke:#ff0000;stroke-width:6;stroke-linecap:butt;stroke-linejoin:miter;stroke-opacity:1"
         d="M 76.995114,265.60161 H 38.497557"
         id="path3" />
      <path
         style="fill:none;stroke:#ff0000;stroke-width:6;stroke-linecap:butt;stroke-linejoin:miter;stroke-opacity:1"
         d="M 61.252642,231.7173 H 38.497557"
         id="path4" />
      <path
         style="fill:none;stroke:#ff0000;stroke-width:6;stroke-linecap:butt;stroke-linejoin:miter;stroke-opacity:1"
         d="M 67.071446,213.80509 H 38.497557"
         id="path5" />
      <path
         id="path6"
         style="display:inline;fill:none;fill-opacity:1;stroke:#000000;stroke-width:3"
         d="m 76.995115,265.6016 c 0,-18.55635 -15.742472,-26.34888 -15.742472,-33.8843 0,-4.65776 5.818198,-10.89324 5.818803,-17.91221 C 67.072646,201.02074 56.334267,197.04334 38.497557,197 c -17.83671,0.0433 -28.575006,4.02074 -28.573889,16.80509 5.97e-4,7.01897 5.818803,13.25445 5.818803,17.91221 C 15.742471,239.25272 0,247.04525 0,265.6016 0,287.84671 18.18918,297 38.497557,297 c 20.308377,0 38.497558,-9.15329 38.497558,-31.3984 z"
         sodipodi:nodetypes="sscccsscs" />
      <path
         style="fill:none;stroke:#000000;stroke-width:3;stroke-linecap:butt;stroke-linejoin:miter;stroke-opacity:1"
         d="M 38.497557,197 V 297"
         id="path2" />
    </g>
  </g>
</svg>
